# xmcd CD database file
#
# Track frame offsets:
#	150
#	22902
#	46377
#
# Disc length: 917 seconds
#
# Revision: 4
# Processed by: cddbd v1.5PL3 Copyright (c) Steve Scherf et al.
# Submitted via: CDex 1.51
#
DISCID=19039303
DTITLE=ZARD - 運命のルーレット廻して
DYEAR=1998
DGENRE=Pop
TTITLE0=運命のルーレット廻して
TTITLE1=少女の頃に戻ったみたいに
TTITLE2=運命のルーレット廻して (Original Karaoke)
EXTD=\n\n YEAR: 1998
EXTT0=
EXTT1=
EXTT2=
PLAYORDER=
